<svg version="1.1" id="Layer_1" xmlns="http://www.w3.org/2000/svg" xmlns:xlink="http://www.w3.org/1999/xlink" x="0px" y="0px"
	 width="100%" viewBox="0 0 1642 1515" enable-background="new 0 0 1642 1515" xml:space="preserve">
<path fill="#FFFFFF" opacity="1.000000" stroke="none" 
	d="
M952.000000,1516.000000 
	C634.666748,1516.000000 317.833527,1516.000000 1.000212,1516.000000 
	C1.000142,1011.000244 1.000142,506.000488 1.000071,1.000551 
	C548.332947,1.000368 1095.665894,1.000368 1642.999023,1.000184 
	C1642.999390,505.999420 1642.999390,1010.998840 1642.999756,1515.999146 
	C1412.833374,1516.000000 1182.666626,1516.000000 952.000000,1516.000000 
M1209.619019,667.853760 
	C1210.590088,667.209473 1211.538452,666.527649 1212.535400,665.926270 
	C1227.776489,656.732117 1242.983521,647.480103 1258.289062,638.394287 
	C1264.939697,634.446289 1271.651001,635.070740 1278.177856,639.000000 
	C1280.032227,640.116455 1281.976074,641.083618 1283.839355,642.186035 
	C1332.864136,671.191772 1381.964233,700.071899 1430.851074,729.308289 
	C1444.029297,737.189392 1457.457031,740.982361 1473.077393,739.598572 
	C1492.193604,737.905151 1507.388672,720.435364 1510.131836,706.495789 
	C1512.462158,694.654480 1510.874512,682.934082 1508.498535,671.377380 
	C1503.921143,649.112732 1498.734375,626.973938 1494.066772,604.727051 
	C1487.595093,573.881958 1481.368652,542.985413 1475.038330,512.110657 
	C1474.038940,507.236053 1473.154053,502.334961 1472.027588,497.490021 
	C1468.837036,483.768951 1476.229980,474.721375 1485.478149,466.373840 
	C1505.007446,448.746613 1524.569458,431.153839 1543.943237,413.356567 
	C1559.518066,399.049225 1574.853516,384.481018 1590.262207,369.993500 
	C1603.356934,357.681396 1617.039429,345.913300 1629.298584,332.815765 
	C1642.108765,319.129517 1644.767212,302.348541 1637.651978,284.975800 
	C1630.583252,267.716675 1617.765625,256.873077 1598.625610,254.952682 
	C1585.736816,253.659485 1572.812866,252.702301 1559.896729,251.699203 
	C1538.692383,250.052475 1517.481567,248.486938 1496.273071,246.894394 
	C1485.995361,246.122650 1475.711548,245.424774 1465.438843,244.590714 
	C1450.871094,243.407928 1436.313843,242.096741 1421.746460,240.909317 
	C1415.779785,240.422989 1409.782715,240.275360 1403.826660,239.695724 
	C1390.648315,238.413223 1384.646851,229.098557 1380.133179,218.181580 
	C1362.150024,174.685974 1344.138184,131.202255 1326.168213,87.701180 
	C1319.759155,72.186089 1314.329590,56.190872 1306.867676,41.204105 
	C1295.952637,19.281609 1274.180542,12.030590 1251.656738,16.539640 
	C1231.781250,20.518520 1219.707886,33.463490 1212.238892,51.303074 
	C1195.016724,92.437721 1178.107422,133.703201 1160.936646,174.859436 
	C1153.632324,192.366562 1146.016724,209.744156 1138.493042,227.159164 
	C1134.768066,235.781601 1127.717163,239.395660 1118.734985,239.986008 
	C1112.594971,240.389557 1106.448608,240.720078 1100.318237,241.239487 
	C1081.786743,242.809647 1063.265991,244.505096 1044.732666,246.052399 
	C1035.123535,246.854645 1025.490723,247.371338 1015.879395,248.150620 
	C996.510010,249.721039 977.141113,251.306229 957.785278,253.033661 
	C944.726746,254.199112 931.515076,254.688095 918.680725,257.113708 
	C890.156494,262.504639 874.169189,295.918640 888.018555,321.412598 
	C892.367554,329.418335 898.958923,336.512512 905.596191,342.911774 
	C926.574524,363.137878 948.033997,382.865906 969.362366,402.727570 
	C978.868347,411.579834 988.510986,420.285217 998.081726,429.067993 
	C1013.171936,442.915802 1028.231567,456.797089 1043.348267,470.615845 
	C1051.521606,478.087402 1053.805054,487.091919 1051.427612,497.807098 
	C1044.727783,528.003540 1038.118530,558.221802 1031.748779,588.489441 
	C1024.935059,620.867310 1017.778992,653.194641 1011.991760,685.760742 
	C1006.690857,715.590942 1029.689575,742.459167 1059.814331,743.168640 
	C1067.300293,743.345032 1074.798950,742.980652 1082.145752,743.592712 
	C1057.990234,782.720520 1033.790405,821.821045 1009.751526,861.020447 
	C1007.472900,864.736084 1005.006409,865.643677 1000.791077,865.063232 
	C988.851257,863.418945 976.859802,863.313477 965.104919,866.533264 
	C931.465210,875.747437 907.293335,895.546265 896.624817,929.525024 
	C891.546570,945.698975 891.854126,962.434448 895.048462,978.992432 
	C895.933594,983.580872 894.923462,986.350525 891.259583,989.125305 
	C883.958496,994.654663 877.106750,1000.772888 869.895630,1006.426208 
	C844.068726,1026.674316 818.151550,1046.807373 792.325867,1067.057007 
	C789.873535,1068.979858 787.936646,1069.022217 785.222595,1067.454590 
	C777.578979,1063.039185 769.766174,1058.912964 761.971802,1054.763428 
	C731.385498,1038.480225 700.818481,1022.159973 670.138184,1006.055481 
	C665.975891,1003.870605 664.995239,1000.966553 664.505249,996.608154 
	C663.376770,986.570435 663.064697,976.001831 659.533813,966.750732 
	C645.497681,929.975098 618.595154,908.406311 579.032715,905.367126 
	C540.489624,902.406250 509.180511,917.092224 488.718781,950.260071 
	C472.532257,976.498047 471.698669,1005.185852 482.678680,1033.789307 
	C485.540497,1041.244507 484.201813,1045.554077 478.809906,1050.916626 
	C420.201996,1109.205933 361.828003,1167.730469 303.398834,1226.199463 
	C286.317749,1243.292236 269.177979,1260.327759 252.238983,1277.560303 
	C245.333618,1284.585449 239.218689,1292.138428 237.251923,1302.365723 
	C233.145340,1323.720093 249.160263,1342.793579 270.828949,1341.948730 
	C280.243927,1341.581543 287.522736,1336.730469 293.949890,1330.431396 
	C317.155731,1307.688110 340.474213,1285.055176 363.404694,1262.036499 
	C419.267883,1205.958374 474.975098,1149.724365 530.605408,1093.415283 
	C534.542725,1089.429932 538.049255,1088.304810 543.614197,1089.593262 
	C562.626404,1093.995850 581.706055,1095.226562 600.763977,1089.117188 
	C614.059998,1084.854858 625.046326,1076.793945 636.043030,1068.708130 
	C638.729675,1066.732666 640.758362,1066.665161 643.645752,1068.234619 
	C664.283508,1079.452393 685.050842,1090.431763 705.703369,1101.622803 
	C727.671814,1113.526978 749.363953,1125.957764 771.546143,1137.445312 
	C788.090454,1146.012939 804.144287,1144.566284 819.065369,1132.567993 
	C856.332336,1102.601196 893.788269,1072.869629 931.060669,1042.909668 
	C934.197510,1040.388184 936.516113,1039.907593 940.306702,1041.703857 
	C960.872437,1051.448975 981.948853,1058.505127 1005.292969,1053.215820 
	C1032.129150,1047.135498 1054.563232,1034.173340 1068.897583,1010.270386 
	C1087.675659,978.957458 1087.619873,946.536499 1071.473022,914.004700 
	C1069.208008,909.441101 1064.553589,904.893555 1064.816406,900.570251 
	C1065.085449,896.141541 1070.179199,892.085999 1072.919312,887.715515 
	C1114.604492,821.230164 1156.279785,754.738586 1197.856934,688.185791 
	C1201.902954,681.709351 1205.285645,674.818604 1209.619019,667.853760 
M1400.500000,1467.075928 
	C1403.997925,1467.075806 1407.495972,1467.076050 1410.993896,1467.075806 
	C1433.478760,1467.074463 1455.974487,1467.498169 1478.444946,1466.927002 
	C1494.253540,1466.525269 1506.821289,1452.774658 1507.050659,1437.189575 
	C1507.321655,1418.766113 1495.755371,1404.506958 1478.921021,1403.178833 
	C1470.823975,1402.539917 1462.650024,1402.786621 1454.510864,1402.786377 
	C1024.346558,1402.771484 594.182373,1402.773315 164.018112,1402.773315 
	C163.018127,1402.773315 161.996155,1402.638306 161.022003,1402.796875 
	C156.970383,1403.456543 155.856415,1401.572266 155.881149,1397.767822 
	C155.972092,1383.769775 155.778778,1369.770142 155.777664,1355.771118 
	C155.748779,995.606445 155.730667,635.441833 155.710083,275.277161 
	C155.709946,273.110535 155.778198,270.940552 155.683960,268.777832 
	C154.972809,252.456558 145.953613,241.206192 130.968719,237.896454 
	C115.620674,234.506500 100.869751,240.547943 94.824806,254.016251 
	C92.208679,259.845062 91.123512,266.833038 91.120705,273.295258 
	C90.956940,650.959717 90.979736,1028.624268 90.984764,1406.288818 
	C90.984894,1415.788696 90.802727,1425.292847 91.028496,1434.787354 
	C91.496094,1454.452026 102.533287,1466.057739 122.042381,1467.121826 
	C130.172226,1467.565308 138.350677,1467.081299 146.507019,1467.081177 
	C564.171326,1467.075195 981.835693,1467.075928 1400.500000,1467.075928 
z"/>
<path fill="#EAC54F" opacity="1.000000" stroke="none" 
	d="
M1082.291748,742.864807 
	C1074.798950,742.980652 1067.300293,743.345032 1059.814331,743.168640 
	C1029.689575,742.459167 1006.690857,715.590942 1011.991760,685.760742 
	C1017.778992,653.194641 1024.935059,620.867310 1031.748779,588.489441 
	C1038.118530,558.221802 1044.727783,528.003540 1051.427612,497.807098 
	C1053.805054,487.091919 1051.521606,478.087402 1043.348267,470.615845 
	C1028.231567,456.797089 1013.171936,442.915802 998.081726,429.067993 
	C988.510986,420.285217 978.868347,411.579834 969.362366,402.727570 
	C948.033997,382.865906 926.574524,363.137878 905.596191,342.911774 
	C898.958923,336.512512 892.367554,329.418335 888.018555,321.412598 
	C874.169189,295.918640 890.156494,262.504639 918.680725,257.113708 
	C931.515076,254.688095 944.726746,254.199112 957.785278,253.033661 
	C977.141113,251.306229 996.510010,249.721039 1015.879395,248.150620 
	C1025.490723,247.371338 1035.123535,246.854645 1044.732666,246.052399 
	C1063.265991,244.505096 1081.786743,242.809647 1100.318237,241.239487 
	C1106.448608,240.720078 1112.594971,240.389557 1118.734985,239.986008 
	C1127.717163,239.395660 1134.768066,235.781601 1138.493042,227.159164 
	C1146.016724,209.744156 1153.632324,192.366562 1160.936646,174.859436 
	C1178.107422,133.703201 1195.016724,92.437721 1212.238892,51.303074 
	C1219.707886,33.463490 1231.781250,20.518520 1251.656738,16.539640 
	C1274.180542,12.030590 1295.952637,19.281609 1306.867676,41.204105 
	C1314.329590,56.190872 1319.759155,72.186089 1326.168213,87.701180 
	C1344.138184,131.202255 1362.150024,174.685974 1380.133179,218.181580 
	C1384.646851,229.098557 1390.648315,238.413223 1403.826660,239.695724 
	C1409.782715,240.275360 1415.779785,240.422989 1421.746460,240.909317 
	C1436.313843,242.096741 1450.871094,243.407928 1465.438843,244.590714 
	C1475.711548,245.424774 1485.995361,246.122650 1496.273071,246.894394 
	C1517.481567,248.486938 1538.692383,250.052475 1559.896729,251.699203 
	C1572.812866,252.702301 1585.736816,253.659485 1598.625610,254.952682 
	C1617.765625,256.873077 1630.583252,267.716675 1637.651978,284.975800 
	C1644.767212,302.348541 1642.108765,319.129517 1629.298584,332.815765 
	C1617.039429,345.913300 1603.356934,357.681396 1590.262207,369.993500 
	C1574.853516,384.481018 1559.518066,399.049225 1543.943237,413.356567 
	C1524.569458,431.153839 1505.007446,448.746613 1485.478149,466.373840 
	C1476.229980,474.721375 1468.837036,483.768951 1472.027588,497.490021 
	C1473.154053,502.334961 1474.038940,507.236053 1475.038330,512.110657 
	C1481.368652,542.985413 1487.595093,573.881958 1494.066772,604.727051 
	C1498.734375,626.973938 1503.921143,649.112732 1508.498535,671.377380 
	C1510.874512,682.934082 1512.462158,694.654480 1510.131836,706.495789 
	C1507.388672,720.435364 1492.193604,737.905151 1473.077393,739.598572 
	C1457.457031,740.982361 1444.029297,737.189392 1430.851074,729.308289 
	C1381.964233,700.071899 1332.864136,671.191772 1283.839355,642.186035 
	C1281.976074,641.083618 1280.032227,640.116455 1278.177856,639.000000 
	C1271.651001,635.070740 1264.939697,634.446289 1258.289062,638.394287 
	C1242.983521,647.480103 1227.776489,656.732117 1212.535400,665.926270 
	C1211.538452,666.527649 1210.590088,667.209473 1208.957764,668.064697 
	C1201.660156,671.717529 1194.869873,674.894409 1188.414062,678.647095 
	C1159.676514,695.351440 1130.976685,712.122742 1102.400146,729.100281 
	C1095.431274,733.240540 1088.980591,738.253235 1082.291748,742.864807 
z"/>
<path fill="#0467D6" opacity="1.000000" stroke="none" 
	d="
M1400.000000,1467.075928 
	C981.835693,1467.075928 564.171326,1467.075195 146.507019,1467.081177 
	C138.350677,1467.081299 130.172226,1467.565308 122.042381,1467.121826 
	C102.533287,1466.057739 91.496094,1454.452026 91.028496,1434.787354 
	C90.802727,1425.292847 90.984894,1415.788696 90.984764,1406.288818 
	C90.979736,1028.624268 90.956940,650.959717 91.120705,273.295258 
	C91.123512,266.833038 92.208679,259.845062 94.824806,254.016251 
	C100.869751,240.547943 115.620674,234.506500 130.968719,237.896454 
	C145.953613,241.206192 154.972809,252.456558 155.683960,268.777832 
	C155.778198,270.940552 155.709946,273.110535 155.710083,275.277161 
	C155.730667,635.441833 155.748779,995.606445 155.777664,1355.771118 
	C155.778778,1369.770142 155.972092,1383.769775 155.881149,1397.767822 
	C155.856415,1401.572266 156.970383,1403.456543 161.022003,1402.796875 
	C161.996155,1402.638306 163.018127,1402.773315 164.018112,1402.773315 
	C594.182373,1402.773315 1024.346558,1402.771484 1454.510864,1402.786377 
	C1462.650024,1402.786621 1470.823975,1402.539917 1478.921021,1403.178833 
	C1495.755371,1404.506958 1507.321655,1418.766113 1507.050659,1437.189575 
	C1506.821289,1452.774658 1494.253540,1466.525269 1478.444946,1466.927002 
	C1455.974487,1467.498169 1433.478760,1467.074463 1410.993896,1467.075806 
	C1407.495972,1467.076050 1403.997925,1467.075806 1400.000000,1467.075928 
z"/>
<path fill="#1D823A" opacity="1.000000" stroke="none" 
	d="
M1082.218750,743.228760 
	C1088.980591,738.253235 1095.431274,733.240540 1102.400146,729.100281 
	C1130.976685,712.122742 1159.676514,695.351440 1188.414062,678.647095 
	C1194.869873,674.894409 1201.660156,671.717529 1208.636353,668.197876 
	C1205.285645,674.818604 1201.902954,681.709351 1197.856934,688.185791 
	C1156.279785,754.738586 1114.604492,821.230164 1072.919312,887.715515 
	C1070.179199,892.085999 1065.085449,896.141541 1064.816406,900.570251 
	C1064.553589,904.893555 1069.208008,909.441101 1071.473022,914.004700 
	C1087.619873,946.536499 1087.675659,978.957458 1068.897583,1010.270386 
	C1054.563232,1034.173340 1032.129150,1047.135498 1005.292969,1053.215820 
	C981.948853,1058.505127 960.872437,1051.448975 940.306702,1041.703857 
	C936.516113,1039.907593 934.197510,1040.388184 931.060669,1042.909668 
	C893.788269,1072.869629 856.332336,1102.601196 819.065369,1132.567993 
	C804.144287,1144.566284 788.090454,1146.012939 771.546143,1137.445312 
	C749.363953,1125.957764 727.671814,1113.526978 705.703369,1101.622803 
	C685.050842,1090.431763 664.283508,1079.452393 643.645752,1068.234619 
	C640.758362,1066.665161 638.729675,1066.732666 636.043030,1068.708130 
	C625.046326,1076.793945 614.059998,1084.854858 600.763977,1089.117188 
	C581.706055,1095.226562 562.626404,1093.995850 543.614197,1089.593262 
	C538.049255,1088.304810 534.542725,1089.429932 530.605408,1093.415283 
	C474.975098,1149.724365 419.267883,1205.958374 363.404694,1262.036499 
	C340.474213,1285.055176 317.155731,1307.688110 293.949890,1330.431396 
	C287.522736,1336.730469 280.243927,1341.581543 270.828949,1341.948730 
	C249.160263,1342.793579 233.145340,1323.720093 237.251923,1302.365723 
	C239.218689,1292.138428 245.333618,1284.585449 252.238983,1277.560303 
	C269.177979,1260.327759 286.317749,1243.292236 303.398834,1226.199463 
	C361.828003,1167.730469 420.201996,1109.205933 478.809906,1050.916626 
	C484.201813,1045.554077 485.540497,1041.244507 482.678680,1033.789307 
	C471.698669,1005.185852 472.532257,976.498047 488.718781,950.260071 
	C509.180511,917.092224 540.489624,902.406250 579.032715,905.367126 
	C618.595154,908.406311 645.497681,929.975098 659.533813,966.750732 
	C663.064697,976.001831 663.376770,986.570435 664.505249,996.608154 
	C664.995239,1000.966553 665.975891,1003.870605 670.138184,1006.055481 
	C700.818481,1022.159973 731.385498,1038.480225 761.971802,1054.763428 
	C769.766174,1058.912964 777.578979,1063.039185 785.222595,1067.454590 
	C787.936646,1069.022217 789.873535,1068.979858 792.325867,1067.057007 
	C818.151550,1046.807373 844.068726,1026.674316 869.895630,1006.426208 
	C877.106750,1000.772888 883.958496,994.654663 891.259583,989.125305 
	C894.923462,986.350525 895.933594,983.580872 895.048462,978.992432 
	C891.854126,962.434448 891.546570,945.698975 896.624817,929.525024 
	C907.293335,895.546265 931.465210,875.747437 965.104919,866.533264 
	C976.859802,863.313477 988.851257,863.418945 1000.791077,865.063232 
	C1005.006409,865.643677 1007.472900,864.736084 1009.751526,861.020447 
	C1033.790405,821.821045 1057.990234,782.720520 1082.218750,743.228760 
M558.583130,1026.089966 
	C576.171265,1034.037476 593.556702,1022.906738 598.750793,1008.991638 
	C604.570496,993.400330 595.470703,975.337585 578.956055,969.795654 
	C564.737793,965.024475 547.180420,974.871216 542.398743,990.298401 
	C538.245911,1003.696777 544.295044,1017.529175 558.583130,1026.089966 
M975.206055,933.596252 
	C973.665955,934.579163 972.044312,935.455505 970.598877,936.562073 
	C960.780029,944.078979 956.250427,956.356018 959.314758,966.974670 
	C963.034302,979.863708 972.736145,988.136536 985.285767,989.120300 
	C996.891663,990.030212 1008.653931,983.086243 1014.070190,972.127136 
	C1019.119446,961.910522 1017.103882,948.678589 1009.181702,940.034241 
	C1000.513123,930.575745 988.963806,928.228760 975.206055,933.596252 
z"/>
<path fill="#FCFDFC" opacity="1.000000" stroke="none" 
	d="
M558.244690,1025.924561 
	C544.295044,1017.529175 538.245911,1003.696777 542.398743,990.298401 
	C547.180420,974.871216 564.737793,965.024475 578.956055,969.795654 
	C595.470703,975.337585 604.570496,993.400330 598.750793,1008.991638 
	C593.556702,1022.906738 576.171265,1034.037476 558.244690,1025.924561 
z"/>
<path fill="#FBFDFC" opacity="1.000000" stroke="none" 
	d="
M975.545837,933.432251 
	C988.963806,928.228760 1000.513123,930.575745 1009.181702,940.034241 
	C1017.103882,948.678589 1019.119446,961.910522 1014.070190,972.127136 
	C1008.653931,983.086243 996.891663,990.030212 985.285767,989.120300 
	C972.736145,988.136536 963.034302,979.863708 959.314758,966.974670 
	C956.250427,956.356018 960.780029,944.078979 970.598877,936.562073 
	C972.044312,935.455505 973.665955,934.579163 975.545837,933.432251 
z"/>
</svg>